<?xml version="1.0" standalone="no"?>
<svg viewBox="0 0 200 200" xmlns="http://www.w3.org/2000/svg">
  <path fill="#24A148" d="M44.8,-77.1C57.9,-70,68.2,-57.7,63.2,-43.9C58.3,-30.2,38.1,-15.1,28.7,-5.4C19.3,4.2,20.6,8.5,24.4,20.2C28.2,31.9,34.4,51.1,30.7,64.7C27,78.4,13.5,86.5,4.8,78.2C-3.9,69.8,-7.7,44.9,-22,37.4C-36.2,29.8,-60.8,39.6,-61.4,36.2C-61.9,32.9,-38.4,16.4,-25.8,7.2C-13.3,-2,-11.8,-4,-16.1,-15.8C-20.5,-27.6,-30.7,-49.2,-29,-62.8C-27.3,-76.5,-13.6,-82,1.1,-84C15.9,-85.9,31.7,-84.1,44.8,-77.1Z" transform="translate(100 100)" />
</svg>
