<?xml version="1.0" standalone="no"?>
<svg viewBox="0 0 200 200" xmlns="http://www.w3.org/2000/svg">
  <path fill="#FA4D56" d="M38.3,-74.3C45.6,-62.1,44.7,-43.7,51,-30.3C57.2,-16.9,70.5,-8.4,75.6,2.9C80.7,14.3,77.5,28.6,71.9,43C66.2,57.3,57.9,71.7,45.5,77.7C33.2,83.8,16.6,81.4,1.4,78.9C-13.8,76.5,-27.5,74,-40.3,68.3C-53.1,62.5,-65,53.4,-72.1,41.5C-79.3,29.6,-81.7,14.8,-82.7,-0.5C-83.6,-15.9,-83,-31.7,-77.1,-45.8C-71.2,-59.9,-60.1,-72.3,-46.3,-80.8C-32.6,-89.3,-16.3,-93.9,-0.4,-93.2C15.5,-92.5,31,-86.5,38.3,-74.3Z" transform="translate(100 100)" />
</svg>
