<?xml version="1.0" standalone="no"?>
<svg viewBox="0 0 200 200" xmlns="http://www.w3.org/2000/svg">
  <path fill="#8A3FFC" d="M6.9,-14.1C11.7,-9.3,20.1,-12.9,35.1,-11.9C50.1,-11,71.7,-5.5,78.4,3.8C85,13.2,76.7,26.3,64.6,32.3C52.5,38.3,36.7,37.2,25.3,30.9C13.9,24.6,6.9,13.2,-1.1,15.1C-9,16.9,-18.1,31.9,-22.7,34.3C-27.3,36.6,-27.4,26.3,-25.4,18.4C-23.3,10.6,-19.1,5.3,-22.8,-2.1C-26.5,-9.5,-38,-19.1,-38.3,-23.8C-38.5,-28.6,-27.5,-28.5,-19.2,-31.3C-11,-34.1,-5.5,-39.6,-2.2,-35.8C1.1,-32,2.2,-18.9,6.9,-14.1Z" transform="translate(100 100)" />
</svg>
