<?xml version="1.0" standalone="no"?>
<svg viewBox="0 0 200 200" xmlns="http://www.w3.org/2000/svg">
  <path fill="#E8DAFF" d="M35,-62.3C46.9,-53.8,59.1,-47.5,66.2,-37.4C73.4,-27.4,75.5,-13.7,71.6,-2.3C67.7,9.2,57.7,18.4,50.6,28.4C43.4,38.5,39.2,49.5,31.2,59C23.3,68.5,11.6,76.6,-0.8,77.9C-13.2,79.3,-26.4,73.9,-40,67.6C-53.7,61.4,-67.8,54.4,-72.9,43C-77.9,31.5,-73.9,15.8,-70,2.2C-66.2,-11.4,-62.6,-22.7,-58.7,-36.1C-54.8,-49.5,-50.6,-64.8,-40.7,-74.5C-30.9,-84.1,-15.4,-87.9,-1.9,-84.6C11.6,-81.2,23.2,-70.7,35,-62.3Z" transform="translate(100 100)" />
</svg>
