<?xml version="1.0" standalone="no"?>
<svg viewBox="0 0 200 200" xmlns="http://www.w3.org/2000/svg">
  <path fill="#F1C21B" d="M28.6,-50.5C37.4,-44.5,45,-37.5,54.7,-28.9C64.3,-20.3,76,-10.1,81,2.9C86,15.9,84.3,31.8,74.1,39.5C64,47.2,45.4,46.8,31.6,51.1C17.9,55.3,8.9,64.2,-2.7,68.9C-14.3,73.5,-28.6,74,-42.2,69.6C-55.9,65.3,-68.8,56.2,-72.1,43.9C-75.3,31.5,-69,15.7,-69.2,-0.1C-69.5,-16,-76.4,-32,-73.9,-45.9C-71.5,-59.8,-59.8,-71.5,-45.9,-74.5C-32,-77.5,-16,-71.7,-3,-66.5C9.9,-61.2,19.9,-56.4,28.6,-50.5Z" transform="translate(100 100)" />
</svg>
