<?xml version="1.0" standalone="no"?>
<svg viewBox="0 0 200 200" xmlns="http://www.w3.org/2000/svg">
  <path fill="#FA4D56" d="M36.1,-66C44.6,-57.6,47.9,-43.6,44,-31.6C40.1,-19.7,29,-9.8,26.6,-1.4C24.2,7,30.3,14,31.2,20.7C32,27.4,27.6,33.8,21.6,34.4C15.5,34.9,7.7,29.6,-1.1,31.6C-10,33.6,-20.1,42.8,-29.3,44.1C-38.6,45.4,-47,38.7,-50.9,30.1C-54.7,21.4,-53.9,10.7,-56.8,-1.7C-59.8,-14.1,-66.5,-28.2,-62.5,-36.6C-58.5,-45,-43.8,-47.6,-31.6,-53.9C-19.4,-60.1,-9.7,-69.9,2.1,-73.5C13.8,-77,27.6,-74.4,36.1,-66Z" transform="translate(100 100)" />
</svg>
