<?xml version="1.0" standalone="no"?>
<svg viewBox="0 0 200 200" xmlns="http://www.w3.org/2000/svg">
  <path fill="#08BDBA" d="M33,-53.6C44.8,-50.4,57.8,-45.6,58.9,-36.4C60,-27.2,49.3,-13.6,41.7,-4.4C34.1,4.8,29.5,9.6,27.7,17.7C25.9,25.8,27,37.2,22.9,41.7C18.7,46.1,9.4,43.5,-0.1,43.7C-9.6,43.9,-19.2,46.8,-30.8,46.7C-42.4,46.6,-56,43.4,-65.8,35.1C-75.5,26.8,-81.4,13.4,-76.5,2.8C-71.6,-7.8,-56,-15.6,-47.2,-25.4C-38.3,-35.2,-36.2,-47.1,-29.5,-53.3C-22.7,-59.5,-11.4,-59.9,-0.4,-59.3C10.6,-58.6,21.2,-56.9,33,-53.6Z" transform="translate(100 100)" />
</svg>
