<?xml version="1.0" standalone="no"?>
<svg viewBox="0 0 200 200" xmlns="http://www.w3.org/2000/svg">
  <path fill="#08BDBA" d="M38.1,-68.6C45.8,-61.6,46,-44.1,50.9,-30.9C55.8,-17.8,65.5,-8.9,67.3,1.1C69.2,11,63.3,22.1,55.5,30.3C47.7,38.5,38,43.8,28.5,52.1C18.9,60.5,9.5,71.8,-3.2,77.4C-15.9,83,-31.8,82.8,-39.2,73.3C-46.6,63.7,-45.5,44.6,-50.7,30.9C-56,17.1,-67.7,8.5,-72,-2.5C-76.3,-13.5,-73.3,-27.1,-67.2,-39.4C-61.1,-51.6,-51.8,-62.6,-40.1,-67.3C-28.3,-72,-14.2,-70.3,0.5,-71.2C15.2,-72.1,30.4,-75.5,38.1,-68.6Z" transform="translate(100 100)" />
</svg>
