<?xml version="1.0" standalone="no"?>
<svg viewBox="0 0 200 200" xmlns="http://www.w3.org/2000/svg">
  <path fill="#24A148" d="M12.8,-35.6C14.5,-21.1,12.6,-13.6,23.2,-8.9C33.9,-4.1,57.1,-2,68,6.3C78.9,14.6,77.4,29.2,66.2,32.9C54.9,36.7,33.9,29.5,21.2,27C8.6,24.6,4.3,26.8,-2.3,30.8C-8.9,34.8,-17.8,40.5,-20.6,37.3C-23.3,34,-19.9,21.8,-20.1,14.1C-20.3,6.4,-24,3.2,-27.3,-1.9C-30.5,-7,-33.3,-13.9,-33.4,-22.1C-33.5,-30.2,-30.9,-39.6,-24.9,-51.6C-18.8,-63.6,-9.4,-78.3,-2,-74.9C5.5,-71.5,11,-50,12.8,-35.6Z" transform="translate(100 100)" />
</svg>
